<svg xmlns="http://www.w3.org/2000/svg" height="599pt" viewBox="-72 0 599 599.318" width="599pt"><path d="M62.086 0h392.4492v537.0352H62.0859zm0 0" fill="#5eb3d1"/><path d="M320.2773 72.293h-20.6562v464.7422h113.6016v-371.793zm0 0" fill="#4fa1b7"/><path d="M392.5703 599H.1211V61.9648H289.293l103.2773 103.2774zm0 0" fill="#87ced9"/><path d="M392.5703 165.2422H289.293V61.9648zm0 0" fill="#b9e6ed"/><path d="M72.414 196.2227h247.8633v20.6562H72.4141zm0 0M72.414 134.2578h82.6212v20.6563H72.414zm0 0M72.414 258.1914h165.2423v20.6524H72.414zm0 0M258.3125 258.1914h61.9648v20.6524h-61.9648zm0 0M72.414 320.1563h247.8633v20.6523H72.4141zm0 0M72.414 444.086h247.8633v20.6562H72.4141zm0 0M165.3633 382.121h154.914v20.6524h-154.914zm0 0M72.414 382.121h72.293v20.6524H72.414zm0 0M72.414 506.0508h41.3087v20.6562H72.414zm0 0M134.379 506.0508h185.8983v20.6562H134.379zm0 0" fill="#5eb3d1"/></svg>